<svg xmlns="http://www.w3.org/2000/svg" width="1400" height="560" viewBox="0 0 1400 560" role="img" aria-label="Lightstreamer Event Workbench marquee promo tile">
  <rect width="1400" height="560" fill="#0f172a"/>
  <rect x="80" y="74" width="430" height="356" rx="26" fill="#f8fafc"/>
  <rect x="80" y="74" width="430" height="72" rx="26" fill="#2563eb"/>
  <rect x="80" y="110" width="430" height="36" fill="#2563eb"/>
  <rect x="142" y="179" width="150" height="22" rx="11" fill="#94a3b8"/>
  <rect x="142" y="241" width="130" height="22" rx="11" fill="#94a3b8"/>
  <rect x="142" y="303" width="170" height="22" rx="11" fill="#94a3b8"/>
  <text x="318" y="272" fill="#0f766e" font-family="Arial, Helvetica, sans-serif" font-size="128" font-weight="700">&gt;&gt;</text>
  <text x="580" y="144" fill="#f8fafc" font-family="Arial, Helvetica, sans-serif" font-size="54" font-weight="700">Lightstreamer</text>
  <text x="580" y="206" fill="#f8fafc" font-family="Arial, Helvetica, sans-serif" font-size="54" font-weight="700">Event Workbench</text>
  <text x="582" y="274" fill="#cbd5e1" font-family="Arial, Helvetica, sans-serif" font-size="30">Inspect, filter, and locally replay</text>
  <text x="582" y="316" fill="#cbd5e1" font-family="Arial, Helvetica, sans-serif" font-size="30">Lightstreamer COMMAND updates.</text>
  <rect x="582" y="380" width="220" height="48" rx="24" fill="#2563eb"/>
  <text x="616" y="413" fill="#eff6ff" font-family="Arial, Helvetica, sans-serif" font-size="22" font-weight="700">COMMAND state</text>
  <rect x="830" y="380" width="212" height="48" rx="24" fill="#0f766e"/>
  <text x="864" y="413" fill="#ecfeff" font-family="Arial, Helvetica, sans-serif" font-size="22" font-weight="700">Local replay</text>
  <rect x="1070" y="380" width="190" height="48" rx="24" fill="#334155"/>
  <text x="1106" y="413" fill="#f8fafc" font-family="Arial, Helvetica, sans-serif" font-size="22" font-weight="700">No backend</text>
</svg>
