<svg xmlns="http://www.w3.org/2000/svg" width="128" height="128" viewBox="0 0 128 128" role="img" aria-label="Lightstreamer Event Workbench logo">
  <defs>
    <linearGradient id="logo-bg" x1="16" y1="12" x2="112" y2="116" gradientUnits="userSpaceOnUse">
      <stop stop-color="#0b1220"/>
      <stop offset="0.58" stop-color="#172033"/>
      <stop offset="1" stop-color="#0f766e"/>
    </linearGradient>
    <linearGradient id="logo-bar" x1="22" y1="22" x2="106" y2="44" gradientUnits="userSpaceOnUse">
      <stop stop-color="#2563eb"/>
      <stop offset="1" stop-color="#14b8a6"/>
    </linearGradient>
  </defs>
  <rect width="128" height="128" rx="28" fill="url(#logo-bg)"/>
  <path d="M21 95 C40 78 58 88 74 67 C87 50 98 48 111 53" fill="none" stroke="#f59e0b" stroke-width="3" stroke-linecap="round" opacity="0.6"/>
  <rect x="19" y="21" width="90" height="86" rx="15" fill="#f8fafc"/>
  <path d="M34 21 H94 C102.284 21 109 27.716 109 36 V46 H19 V36 C19 27.716 25.716 21 34 21 Z" fill="url(#logo-bar)"/>
  <circle cx="33" cy="34" r="4" fill="#dbeafe"/>
  <circle cx="47" cy="34" r="4" fill="#ccfbf1"/>
  <circle cx="61" cy="34" r="4" fill="#fef3c7"/>
  <rect x="33" y="58" width="28" height="6" rx="3" fill="#94a3b8"/>
  <rect x="33" y="74" width="22" height="6" rx="3" fill="#94a3b8"/>
  <rect x="33" y="90" width="32" height="6" rx="3" fill="#94a3b8"/>
  <path d="M69 65 H86 L76 55" fill="none" stroke="#0f766e" stroke-width="7" stroke-linecap="round" stroke-linejoin="round"/>
  <path d="M69 79 H93 L81 91" fill="none" stroke="#2563eb" stroke-width="7" stroke-linecap="round" stroke-linejoin="round"/>
  <circle cx="69" cy="65" r="4" fill="#0f766e"/>
  <circle cx="69" cy="79" r="4" fill="#2563eb"/>
  <circle cx="94" cy="55" r="5" fill="#f59e0b"/>
  <circle cx="98" cy="91" r="5" fill="#14b8a6"/>
</svg>
